<mxfile host="app.diagrams.net" agent="Mozilla/5.0 (X11; Ubuntu; Linux x86_64; rv:134.0) Gecko/20100101 Firefox/134.0" version="26.0.10">
  <diagram name="Page-1" id="qKAzFaTIPnDPn_LquFk8">
    <mxGraphModel dx="782" dy="451" grid="1" gridSize="10" guides="1" tooltips="1" connect="1" arrows="1" fold="1" page="1" pageScale="1" pageWidth="850" pageHeight="1100" math="0" shadow="0">
      <root>
        <mxCell id="0" />
        <mxCell id="1" parent="0" />
        <mxCell id="31M3Ru9-WciQIyxBQ39k-1" value="Pieces" style="rounded=0;whiteSpace=wrap;html=1;" vertex="1" parent="1">
          <mxGeometry x="80" y="160" width="80" height="40" as="geometry" />
        </mxCell>
        <mxCell id="31M3Ru9-WciQIyxBQ39k-8" style="edgeStyle=orthogonalEdgeStyle;rounded=0;orthogonalLoop=1;jettySize=auto;html=1;exitX=0;exitY=0.5;exitDx=0;exitDy=0;entryX=1;entryY=0.5;entryDx=0;entryDy=0;" edge="1" parent="1" source="31M3Ru9-WciQIyxBQ39k-2" target="31M3Ru9-WciQIyxBQ39k-1">
          <mxGeometry relative="1" as="geometry" />
        </mxCell>
        <mxCell id="31M3Ru9-WciQIyxBQ39k-2" value="&lt;div&gt;Board&lt;/div&gt;" style="rounded=0;whiteSpace=wrap;html=1;" vertex="1" parent="1">
          <mxGeometry x="240" y="160" width="80" height="40" as="geometry" />
        </mxCell>
        <mxCell id="31M3Ru9-WciQIyxBQ39k-7" style="edgeStyle=orthogonalEdgeStyle;rounded=0;orthogonalLoop=1;jettySize=auto;html=1;exitX=0;exitY=0.5;exitDx=0;exitDy=0;entryX=1;entryY=0.5;entryDx=0;entryDy=0;" edge="1" parent="1" source="31M3Ru9-WciQIyxBQ39k-3" target="31M3Ru9-WciQIyxBQ39k-2">
          <mxGeometry relative="1" as="geometry" />
        </mxCell>
        <mxCell id="31M3Ru9-WciQIyxBQ39k-3" value="Puzzle" style="rounded=0;whiteSpace=wrap;html=1;" vertex="1" parent="1">
          <mxGeometry x="400" y="160" width="80" height="40" as="geometry" />
        </mxCell>
        <mxCell id="31M3Ru9-WciQIyxBQ39k-21" style="edgeStyle=orthogonalEdgeStyle;rounded=0;orthogonalLoop=1;jettySize=auto;html=1;exitX=1;exitY=0.5;exitDx=0;exitDy=0;entryX=0.5;entryY=1;entryDx=0;entryDy=0;" edge="1" parent="1" source="31M3Ru9-WciQIyxBQ39k-4" target="31M3Ru9-WciQIyxBQ39k-3">
          <mxGeometry relative="1" as="geometry" />
        </mxCell>
        <mxCell id="31M3Ru9-WciQIyxBQ39k-23" style="edgeStyle=orthogonalEdgeStyle;rounded=0;orthogonalLoop=1;jettySize=auto;html=1;exitX=0;exitY=0.5;exitDx=0;exitDy=0;entryX=1;entryY=0.5;entryDx=0;entryDy=0;" edge="1" parent="1" source="31M3Ru9-WciQIyxBQ39k-4" target="31M3Ru9-WciQIyxBQ39k-6">
          <mxGeometry relative="1" as="geometry" />
        </mxCell>
        <mxCell id="31M3Ru9-WciQIyxBQ39k-24" style="edgeStyle=orthogonalEdgeStyle;rounded=0;orthogonalLoop=1;jettySize=auto;html=1;exitX=0.25;exitY=1;exitDx=0;exitDy=0;entryX=0.5;entryY=0;entryDx=0;entryDy=0;" edge="1" parent="1" source="31M3Ru9-WciQIyxBQ39k-4" target="31M3Ru9-WciQIyxBQ39k-5">
          <mxGeometry relative="1" as="geometry" />
        </mxCell>
        <mxCell id="31M3Ru9-WciQIyxBQ39k-25" style="edgeStyle=orthogonalEdgeStyle;rounded=0;orthogonalLoop=1;jettySize=auto;html=1;exitX=0.75;exitY=1;exitDx=0;exitDy=0;entryX=0.5;entryY=0;entryDx=0;entryDy=0;" edge="1" parent="1" source="31M3Ru9-WciQIyxBQ39k-4" target="31M3Ru9-WciQIyxBQ39k-15">
          <mxGeometry relative="1" as="geometry" />
        </mxCell>
        <mxCell id="31M3Ru9-WciQIyxBQ39k-28" style="edgeStyle=orthogonalEdgeStyle;rounded=0;orthogonalLoop=1;jettySize=auto;html=1;exitX=0.75;exitY=0;exitDx=0;exitDy=0;entryX=0;entryY=0.5;entryDx=0;entryDy=0;" edge="1" parent="1" source="31M3Ru9-WciQIyxBQ39k-4" target="31M3Ru9-WciQIyxBQ39k-20">
          <mxGeometry relative="1" as="geometry" />
        </mxCell>
        <mxCell id="31M3Ru9-WciQIyxBQ39k-4" value="Main" style="rounded=0;whiteSpace=wrap;html=1;" vertex="1" parent="1">
          <mxGeometry x="240" y="300" width="80" height="40" as="geometry" />
        </mxCell>
        <mxCell id="31M3Ru9-WciQIyxBQ39k-5" value="CsvManager" style="rounded=0;whiteSpace=wrap;html=1;" vertex="1" parent="1">
          <mxGeometry x="160" y="400" width="80" height="40" as="geometry" />
        </mxCell>
        <mxCell id="31M3Ru9-WciQIyxBQ39k-11" style="edgeStyle=orthogonalEdgeStyle;rounded=0;orthogonalLoop=1;jettySize=auto;html=1;exitX=0.5;exitY=0;exitDx=0;exitDy=0;entryX=0.5;entryY=1;entryDx=0;entryDy=0;" edge="1" parent="1" source="31M3Ru9-WciQIyxBQ39k-6" target="31M3Ru9-WciQIyxBQ39k-1">
          <mxGeometry relative="1" as="geometry" />
        </mxCell>
        <mxCell id="31M3Ru9-WciQIyxBQ39k-26" style="edgeStyle=orthogonalEdgeStyle;rounded=0;orthogonalLoop=1;jettySize=auto;html=1;exitX=0.75;exitY=0;exitDx=0;exitDy=0;entryX=0.25;entryY=1;entryDx=0;entryDy=0;" edge="1" parent="1" source="31M3Ru9-WciQIyxBQ39k-6" target="31M3Ru9-WciQIyxBQ39k-2">
          <mxGeometry relative="1" as="geometry" />
        </mxCell>
        <mxCell id="31M3Ru9-WciQIyxBQ39k-6" value="Fen" style="rounded=0;whiteSpace=wrap;html=1;" vertex="1" parent="1">
          <mxGeometry x="80" y="300" width="80" height="40" as="geometry" />
        </mxCell>
        <mxCell id="31M3Ru9-WciQIyxBQ39k-15" value="Progress" style="rounded=0;whiteSpace=wrap;html=1;" vertex="1" parent="1">
          <mxGeometry x="320" y="400" width="80" height="40" as="geometry" />
        </mxCell>
        <mxCell id="31M3Ru9-WciQIyxBQ39k-27" style="edgeStyle=orthogonalEdgeStyle;rounded=0;orthogonalLoop=1;jettySize=auto;html=1;exitX=0.25;exitY=0;exitDx=0;exitDy=0;entryX=0.75;entryY=1;entryDx=0;entryDy=0;" edge="1" parent="1" source="31M3Ru9-WciQIyxBQ39k-20" target="31M3Ru9-WciQIyxBQ39k-2">
          <mxGeometry relative="1" as="geometry" />
        </mxCell>
        <mxCell id="31M3Ru9-WciQIyxBQ39k-20" value="Display" style="rounded=0;whiteSpace=wrap;html=1;" vertex="1" parent="1">
          <mxGeometry x="320" y="240" width="80" height="40" as="geometry" />
        </mxCell>
      </root>
    </mxGraphModel>
  </diagram>
</mxfile>
